<?xml version="1.0" encoding="UTF-8"?>
<svg xmlns="http://www.w3.org/2000/svg" xmlns:xlink="http://www.w3.org/1999/xlink" width="100px" height="100px" viewBox="0 0 100 100" version="1.1">
<g id="surface1">
<path style=" stroke:none;fill-rule:nonzero;fill:rgb(46.666667%,73.725492%,29.019609%);fill-opacity:1;" d="M 76.910156 19.851562 C 59.644531 7.914062 32.527344 1.195312 3.90625 3.164062 C 21.171875 17.882812 21.054688 43.144531 30.558594 62.730469 C 44.578125 90.078125 71.117188 87.066406 85.601562 72.8125 C 94.757812 63.773438 99.160156 50.328125 92.671875 37.003906 C 89.660156 30.746094 84.097656 24.835938 76.910156 19.851562 Z M 76.910156 19.851562 "/>
<path style=" stroke:none;fill-rule:nonzero;fill:rgb(0.784314%,21.176471%,0%);fill-opacity:1;" d="M 98.8125 96.105469 C 96.148438 88.109375 92.902344 80.574219 89.078125 73.390625 C 89.195312 73.273438 89.3125 73.042969 89.542969 72.925781 C 98.234375 63.191406 101.941406 49.402344 95.335938 35.84375 C 91.976562 29.007812 86.183594 22.863281 78.648438 17.648438 C 78.535156 17.535156 78.417969 17.535156 78.300781 17.417969 C 72.972656 13.824219 66.945312 10.695312 60.109375 8.03125 C 44 1.890625 24.183594 -1.125 3.671875 0.382812 C 2.050781 0.5 0.890625 1.890625 1.007812 3.394531 C 1.125 4.207031 1.472656 4.902344 2.050781 5.480469 C 12.363281 14.40625 16.1875 27.847656 20.011719 41.175781 C 22.328125 49.054688 24.53125 56.933594 28.007812 64.121094 C 28.007812 64.234375 28.125 64.234375 28.125 64.351562 C 36.816406 81.15625 50.140625 87.179688 62.773438 86.371094 C 67.871094 86.023438 72.972656 84.632812 77.492188 82.3125 C 80.039062 81.039062 82.589844 79.417969 84.792969 77.5625 C 88.152344 84.050781 90.933594 90.890625 93.367188 98.074219 C 93.832031 99.582031 95.453125 100.390625 96.960938 99.8125 C 98.582031 99.234375 99.394531 97.609375 98.8125 96.105469 Z M 90.238281 38.394531 C 95.453125 49.054688 92.789062 60.0625 86.183594 68.058594 C 84.675781 65.511719 83.167969 63.078125 81.546875 60.644531 L 80.039062 25.761719 C 84.558594 29.703125 88.035156 33.875 90.238281 38.394531 Z M 58.136719 13.363281 C 64.046875 15.679688 69.496094 18.34375 74.128906 21.359375 L 75.519531 52.414062 C 71.117188 46.96875 66.25 41.871094 60.917969 37.117188 L 60.804688 37.003906 C 54.429688 31.441406 47.359375 26.339844 39.480469 21.9375 C 38.089844 21.125 36.351562 21.707031 35.65625 22.980469 C 34.84375 24.371094 35.425781 26.109375 36.699219 26.804688 C 41.683594 29.585938 46.316406 32.714844 50.722656 36.074219 L 24.414062 35.03125 C 21.285156 24.371094 17.808594 14.058594 10.625 5.714844 C 27.890625 5.367188 44.464844 8.148438 58.136719 13.363281 Z M 74.941406 77.214844 C 71 79.183594 66.828125 80.460938 62.425781 80.691406 C 51.765625 81.386719 40.640625 76.171875 33.222656 61.6875 L 33.222656 61.570312 C 30.09375 55.195312 28.007812 48.011719 25.921875 40.828125 L 57.90625 42.101562 C 63.121094 46.738281 67.757812 51.71875 71.929688 57.050781 C 75.636719 61.800781 78.996094 66.902344 82.125 72.347656 C 79.925781 74.203125 77.492188 75.824219 74.941406 77.214844 Z M 74.941406 77.214844 "/>
</g>
</svg>
