<?xml version="1.0" encoding="UTF-8"?>
<svg xmlns="http://www.w3.org/2000/svg" xmlns:xlink="http://www.w3.org/1999/xlink" width="32px" height="32px" viewBox="0 0 32 32" version="1.1">
<g id="surface1">
<path style=" stroke:none;fill-rule:nonzero;fill:rgb(46.666667%,73.725492%,29.019609%);fill-opacity:1;" d="M 24.609375 6.351562 C 19.085938 2.53125 10.410156 0.382812 1.25 1.011719 C 6.773438 5.722656 6.738281 13.804688 9.777344 20.074219 C 14.265625 28.824219 22.757812 27.859375 27.390625 23.300781 C 30.324219 20.40625 31.730469 16.105469 29.65625 11.839844 C 28.691406 9.839844 26.910156 7.949219 24.609375 6.351562 Z M 24.609375 6.351562 "/>
<path style=" stroke:none;fill-rule:nonzero;fill:rgb(0.784314%,21.176471%,0%);fill-opacity:1;" d="M 31.621094 30.753906 C 30.765625 28.195312 29.730469 25.785156 28.503906 23.484375 C 28.542969 23.449219 28.578125 23.375 28.652344 23.335938 C 31.433594 20.222656 32.621094 15.808594 30.507812 11.46875 C 29.433594 9.28125 27.578125 7.316406 25.167969 5.648438 C 25.132812 5.609375 25.09375 5.609375 25.054688 5.574219 C 23.351562 4.421875 21.421875 3.421875 19.234375 2.570312 C 14.078125 0.605469 7.738281 -0.359375 1.175781 0.121094 C 0.65625 0.160156 0.285156 0.605469 0.324219 1.085938 C 0.359375 1.347656 0.472656 1.570312 0.65625 1.753906 C 3.957031 4.609375 5.179688 8.910156 6.402344 13.175781 C 7.144531 15.699219 7.851562 18.21875 8.960938 20.519531 C 8.960938 20.554688 9 20.554688 9 20.59375 C 11.78125 25.96875 16.046875 27.898438 20.085938 27.640625 C 21.71875 27.527344 23.351562 27.082031 24.796875 26.339844 C 25.613281 25.933594 26.429688 25.414062 27.132812 24.820312 C 28.207031 26.894531 29.097656 29.085938 29.878906 31.382812 C 30.027344 31.867188 30.546875 32.125 31.027344 31.941406 C 31.546875 31.753906 31.804688 31.234375 31.621094 30.753906 Z M 28.875 12.285156 C 30.546875 15.699219 29.691406 19.21875 27.578125 21.777344 C 27.097656 20.964844 26.613281 20.183594 26.09375 19.40625 L 25.613281 8.242188 C 27.058594 9.503906 28.171875 10.839844 28.875 12.285156 Z M 18.605469 4.277344 C 20.496094 5.015625 22.238281 5.871094 23.722656 6.835938 L 24.167969 16.773438 C 22.757812 15.03125 21.199219 13.398438 19.492188 11.878906 L 19.457031 11.839844 C 17.417969 10.0625 15.15625 8.429688 12.632812 7.019531 C 12.1875 6.761719 11.632812 6.945312 11.410156 7.355469 C 11.148438 7.796875 11.335938 8.355469 11.742188 8.578125 C 13.339844 9.46875 14.820312 10.46875 16.230469 11.542969 L 7.8125 11.210938 C 6.8125 7.796875 5.699219 4.5 3.398438 1.828125 C 8.925781 1.71875 14.230469 2.609375 18.605469 4.277344 Z M 23.980469 24.707031 C 22.71875 25.339844 21.386719 25.746094 19.976562 25.820312 C 16.566406 26.042969 13.003906 24.375 10.632812 19.738281 L 10.632812 19.703125 C 9.628906 17.664062 8.960938 15.363281 8.296875 13.066406 L 18.53125 13.472656 C 20.199219 14.957031 21.683594 16.550781 23.015625 18.257812 C 24.203125 19.777344 25.277344 21.410156 26.28125 23.152344 C 25.578125 23.746094 24.796875 24.265625 23.980469 24.707031 Z M 23.980469 24.707031 "/>
</g>
</svg>
